<svg width="110" height="82" viewBox="0 0 110 82" fill="none" xmlns="http://www.w3.org/2000/svg">
<path d="M0.0456746 54.3378C-1.30097 31.6451 27.2031 -13.291 75.9068 3.7847C103.738 13.6706 110.471 29.3983 80.6201 50.9676C80.6201 50.9676 80.8446 63.1004 57.7271 61.3029C57.7271 61.3029 42.6895 60.6289 32.5897 68.268C21.8165 76.5812 0.494557 64.6731 0.0456746 54.3378Z" fill="#53D5EA"/>
<path d="M89.5978 15.6928C89.5978 15.6928 81.7423 7.82897 71.418 7.37961C68.0514 7.15493 64.2359 7.60429 60.1959 7.82897C51.4427 8.50301 41.1184 8.72769 32.3652 5.1328L34.6096 4.0094C42.6895 7.37961 51.4427 6.48089 59.9715 5.80684C64.0115 5.58216 67.8269 5.1328 71.418 5.35748C82.6401 5.80684 90.7199 13.8953 90.9444 14.3447L89.5978 15.6928Z" fill="#75FFFF"/>
<path d="M57.9516 6.70561L56.3805 6.48093C56.3805 7.15497 56.3805 5.5822 56.3805 5.35752C55.9316 4.68348 52.7894 2.43668 44.4851 1.08859L47.6273 0.414551C54.8094 1.53795 57.2783 2.43668 58.4005 4.68348C58.4005 5.5822 58.176 6.25625 57.9516 6.70561Z" fill="#75FFFF"/>
<path d="M32.5897 21.0852L30.7942 19.7371C33.7119 15.4682 42.0162 9.17712 46.7295 7.155C47.6273 6.70564 47.1784 6.93032 48.0762 6.48096L50.545 7.37968C49.4228 7.82904 48.525 8.2784 47.6273 8.72776C42.6896 10.7499 35.283 17.2656 32.5897 21.0852Z" fill="#75FFFF"/>
<path d="M5.20776 32.7685L6.32997 30.7464C7.00329 30.5217 9.24773 30.297 13.961 28.4996C15.981 27.8256 17.3276 26.2528 18.6742 24.68C20.2453 22.6579 22.0409 20.6358 25.4075 19.7371C30.5696 18.389 33.9362 21.5345 35.0585 23.3319L33.4874 24.2307C33.4874 24.006 30.7941 20.1864 25.8564 21.5345C23.1631 22.2085 21.592 24.006 20.2453 25.8034C18.8987 27.6009 17.3276 29.3983 14.8587 30.297C9.6966 32.0945 5.4322 32.5438 5.20776 32.7685Z" fill="#75FFFF"/>
<path d="M15.5321 28.7242C10.5944 19.2876 24.5097 11.6485 25.1831 11.4238L26.0808 13.2213C25.8564 13.2213 13.2877 20.1864 17.3276 28.0502L15.5321 28.7242Z" fill="#75FFFF"/>
<path d="M8.35003 66.0213C7.90114 65.5719 -0.403211 58.6068 3.41229 50.9677C5.20782 47.5975 7.45225 45.3507 9.24778 43.5532C11.2677 41.5311 12.8388 40.183 12.6144 38.1609C12.6144 35.0154 15.5321 31.8699 18.4499 30.5218C21.3676 29.1737 24.0609 29.3984 25.8564 30.9711L24.5098 32.3192C22.7143 30.7465 20.2454 31.6452 19.1232 32.0945C16.4299 33.4426 14.4099 35.9141 14.4099 37.9362C14.4099 40.8571 12.6144 42.6545 10.37 44.6767C8.57445 46.4741 6.33004 48.4962 4.75895 51.6417C1.61677 57.9328 11.2677 67.3694 11.2677 67.5941L8.35003 66.0213Z" fill="#75FFFF"/>
<path d="M1.39233 42.8792L2.29009 40.183C7.00335 36.1388 13.2877 38.835 13.7366 39.0596L13.0633 40.8571C12.8388 40.8571 4.75895 38.1609 1.39233 42.8792Z" fill="#75FFFF"/>
<path d="M14.1854 62.4264C6.10553 54.7872 6.32997 47.1481 6.32997 47.1481L8.34996 46.6987L8.1255 47.8221C8.1255 48.0468 10.5944 56.1353 15.0832 60.1796L14.1854 62.4264Z" fill="#75FFFF"/>
<path opacity="0.1" d="M32.5898 68.268C42.6896 60.6289 57.7272 61.3029 57.7272 61.3029C81.0691 63.325 80.6202 50.9676 80.6202 50.9676C99.6977 37.0374 103.738 25.5787 97.0045 16.5915C93.4134 14.3447 88.7001 12.0979 83.3135 10.3004C34.3853 -6.7753 5.88126 37.9361 7.45235 60.8536C7.67679 62.8757 8.35013 64.8978 9.92122 66.6952C17.1033 71.1889 26.5299 72.9863 32.5898 68.268Z" fill="black"/>
<path d="M14.41 64.4485C13.0633 41.7557 35.7319 -1.15824 90.2711 13.8954C101.718 17.0409 124.835 39.5089 94.9844 61.0783C94.9844 61.0783 95.2088 73.211 72.0914 71.4136C72.0914 71.4136 57.0538 70.7395 46.954 78.3787C36.1808 86.4672 14.8589 74.5591 14.41 64.4485Z" fill="#75FFFF"/>
<path d="M96.7798 59.9549L94.9843 61.303C94.9843 61.303 97.0043 55.686 95.2087 52.5404C94.311 50.9677 92.0665 50.2936 88.6999 50.2936H87.3533C79.4979 50.5183 74.5601 50.743 71.8668 47.8221C70.2957 45.8 69.8469 42.8792 70.9691 37.9362C72.7646 28.949 72.3157 22.8826 69.6224 19.7371C67.8269 17.7149 64.6847 16.8162 60.6448 17.0409C52.3404 17.7149 49.1983 23.332 47.8516 39.9583C47.6272 43.3285 44.485 47.1481 39.9962 49.3949C36.4051 51.1924 28.7741 55.686 16.6543 47.8221L17.3276 46.0247C28.5497 53.2145 35.9562 49.3949 39.0984 47.5975C43.5873 45.3507 45.8317 41.9804 45.8317 39.7336C46.9539 24.4554 49.6472 15.9175 60.1959 15.0188C64.9092 14.5694 68.5002 15.6928 70.7446 18.389C73.8868 21.9839 74.5601 28.4996 72.5402 38.1609C71.6424 42.4298 71.8668 45.126 72.989 46.4741C75.009 48.7209 79.9467 48.4962 86.9044 48.2715H88.2511C92.291 48.0468 94.9843 49.1702 96.331 51.417C99.2487 55.4613 97.0043 59.7302 96.7798 59.9549Z" fill="#53D5EA"/>
<path d="M66.0314 61.3029L64.2358 61.0783C65.5825 47.8221 82.8645 48.7208 83.0889 48.7208L82.8645 50.7429C81.9667 50.5183 67.1536 49.8442 66.0314 61.3029Z" fill="#53D5EA"/>
<path d="M73.6625 34.3413L71.8669 33.8919C71.8669 33.6672 75.2336 17.7149 90.4956 18.3889V20.4111C76.5802 19.737 73.6625 33.6672 73.6625 34.3413Z" fill="#53D5EA"/>
<path d="M91.6177 30.5217C89.3733 23.1073 80.6201 23.1073 80.6201 22.8826V20.8605C80.6201 20.8605 90.9444 21.0852 93.6377 29.8477L91.6177 30.5217Z" fill="#53D5EA"/>
<path d="M34.3852 65.1226L33.7119 63.3251C52.3405 56.1353 46.5051 39.509 46.2806 38.8349L48.0762 38.1609C48.0762 38.3856 54.8094 57.2587 34.3852 65.1226Z" fill="#53D5EA"/>
<path d="M44.934 70.5149L43.5874 69.1668C48.974 64.2239 44.934 55.9107 44.7096 55.9107L46.5051 55.012C46.7296 55.2366 51.2184 64.6732 44.934 70.5149Z" fill="#53D5EA"/>
<path d="M48.9739 30.7464L47.4028 29.623C47.4028 29.623 53.9116 20.6357 62.216 24.006L61.5426 25.8034C54.585 23.1072 48.9739 30.7464 48.9739 30.7464Z" fill="#53D5EA"/>
<path d="M37.5273 81.0749C28.7741 80.1761 28.5496 73.4357 26.5297 67.3693C25.8563 65.1225 25.4075 62.8757 24.2853 61.5276C20.9186 56.8093 17.7765 56.5847 14.6343 56.36L14.8587 54.5625C15.3076 54.5625 22.2653 53.8885 25.8563 60.6289C26.7541 62.4264 27.4274 64.4485 28.1008 66.92C29.8963 72.9864 33.4874 80.1761 40.8939 80.8502L37.5273 81.0749Z" fill="#53D5EA"/>
<path d="M40.6696 48.7209L38.8741 48.4962C39.5474 41.0818 27.4276 39.509 27.2031 39.509L27.4276 37.7115C27.8765 37.7115 41.3429 39.509 40.6696 48.7209Z" fill="#53D5EA"/>
<path d="M36.4053 41.9805L34.8342 41.0818C38.4252 35.4647 32.8142 28.0503 32.8142 28.0503L34.3853 26.9269C34.3853 27.1516 40.6697 35.2401 36.4053 41.9805Z" fill="#53D5EA"/>
<path d="M92.7399 50.069L90.9443 49.1702C92.7399 45.3507 93.6376 44.6766 97.2287 42.4298C97.902 41.9805 98.5754 41.3064 99.6976 40.8571C104.411 37.4868 101.269 30.9711 101.044 30.9711L102.84 30.0724C104.186 32.7686 105.757 39.0596 100.82 42.4298C99.922 43.1039 99.0242 43.5532 98.3509 44.0026C94.9843 46.2494 94.311 46.6988 92.7399 50.069Z" fill="#53D5EA"/>
<path d="M104.86 44.0025C102.167 44.0025 99.6978 42.4298 99.6978 42.4298L100.82 40.857C100.82 40.857 103.513 42.6544 105.982 41.9804C107.104 41.7557 109.124 39.2842 109.798 37.9362L109.573 40.857C108.451 42.6544 108.002 43.3285 106.207 43.7779C105.758 43.7779 105.309 44.0025 104.86 44.0025Z" fill="#53D5EA"/>
<path d="M66.2558 71.1889C66.0314 71.1889 65.8069 70.9643 65.8069 70.7396C65.1336 70.0655 65.8069 69.3915 66.0314 69.1668C66.4803 68.7175 67.6025 67.8187 70.5202 65.1226C72.0913 63.7745 72.7646 62.2017 72.5402 60.629C72.3157 57.2587 68.0513 54.3379 68.0513 54.3379L69.1736 52.7651C69.398 52.9898 74.1113 56.1353 74.5602 60.4043C74.7846 62.6511 73.8868 64.4485 71.8668 66.246C69.398 68.4928 68.0513 69.6162 67.378 70.2902L67.1536 70.5149C66.7047 70.9643 66.4803 71.1889 66.2558 71.1889Z" fill="#53D5EA"/>
<path d="M81.9667 64.8978C80.8445 63.3251 79.7223 62.2017 78.3756 61.977C76.1312 61.5276 74.3357 62.651 74.1112 62.8757L72.989 61.303C72.989 61.303 75.6823 59.5055 78.6 60.1796C80.62 60.6289 82.1911 61.977 83.5378 63.9991L81.9667 64.8978Z" fill="#53D5EA"/>
<path d="M70.7446 42.2051C70.7446 42.2051 66.2558 37.4868 61.7669 37.4868C60.1959 37.4868 58.8492 38.1609 57.727 39.2843L56.3804 37.9362C57.9515 36.3634 59.747 35.4647 61.7669 35.4647C66.9291 35.4647 71.8668 40.6324 72.0913 40.8571L70.7446 42.2051Z" fill="#53D5EA"/>
<path d="M87.3535 37.9362C82.1913 32.9933 86.9046 24.2307 87.129 23.7814L88.7001 24.6801C88.7001 24.6801 84.4357 32.5439 88.4757 36.3635L87.3535 37.9362Z" fill="#53D5EA"/>
<path d="M31.4675 76.1319L30.1208 74.7838C31.4675 73.4357 35.5074 71.1889 40.2207 73.6604L39.3229 75.4578C34.6097 72.9863 31.6919 75.9072 31.4675 76.1319Z" fill="#53D5EA"/>
<path d="M54.136 64.6732C52.3404 61.5277 47.1783 61.977 47.1783 61.977L46.9539 60.1796C47.1783 60.1796 53.4626 59.5055 55.7071 63.7745L54.136 64.6732Z" fill="#53D5EA"/>
</svg>
