<svg width="218" height="195" viewBox="0 0 218 195" fill="none" xmlns="http://www.w3.org/2000/svg">
<path d="M205.813 95.0398V101.106L122.096 53.2492V47.1829L205.813 95.0398Z" fill="#778489"/>
<path d="M122.096 47.1829V53.2492L21.9953 112.116V106.049L122.096 47.1829Z" fill="#ABBEC5"/>
<path d="M58.8036 133.91V139.976C58.8036 139.077 58.1304 138.179 57.0081 137.505C56.7837 137.28 56.3348 137.28 56.1104 137.055V130.989C56.3348 131.214 56.7837 131.214 57.0081 131.438C58.3548 132.112 58.8036 133.011 58.8036 133.91Z" fill="#738085"/>
<path d="M56.1104 130.989V137.055C55.886 137.055 55.6615 136.831 55.437 136.831V130.764C55.6615 130.764 55.886 130.989 56.1104 130.989Z" fill="#78858A"/>
<path d="M55.437 130.764V136.831C55.2126 136.831 54.9882 136.831 54.7637 136.606V130.539C54.9882 130.764 55.2126 130.764 55.437 130.764Z" fill="#7C8A8F"/>
<path d="M54.7637 130.539V136.606C54.5393 136.606 54.3148 136.606 54.0904 136.606V130.539C54.3148 130.539 54.5393 130.539 54.7637 130.539Z" fill="#818F94"/>
<path d="M54.0904 130.539V136.606C53.866 136.606 53.6415 136.606 53.4171 136.606V130.539C53.866 130.539 54.0904 130.539 54.0904 130.539Z" fill="#859499"/>
<path d="M53.6415 130.539V136.606C53.417 136.606 53.1926 136.606 52.9681 136.606V130.539C53.1926 130.315 53.417 130.539 53.6415 130.539Z" fill="#8A999E"/>
<path d="M52.9682 130.315V136.381C52.7438 136.381 52.5193 136.381 52.2949 136.381V130.315C52.5193 130.315 52.7438 130.315 52.9682 130.315Z" fill="#8E9DA3"/>
<path d="M52.2949 130.315V136.381C52.0704 136.381 51.846 136.381 51.6216 136.381V130.315C51.846 130.539 52.0704 130.539 52.2949 130.315Z" fill="#93A2A8"/>
<path d="M51.6216 130.539V136.606C51.3971 136.606 51.1727 136.606 50.9482 136.606V130.539C51.1727 130.539 51.3971 130.539 51.6216 130.539Z" fill="#97A7AD"/>
<path d="M50.9482 130.539V136.606C50.4994 136.606 50.2749 136.831 49.826 136.831V130.764C50.0505 130.764 50.4994 130.539 50.9482 130.539Z" fill="#9BACB3"/>
<path d="M49.826 130.764V136.831C49.3771 137.055 48.9282 137.28 48.4793 137.505V131.438C48.7038 131.214 49.3771 130.989 49.826 130.764Z" fill="#A0B1B8"/>
<path d="M48.2549 131.438V137.505C48.0305 137.729 47.806 137.954 47.5816 138.179V132.112C47.806 131.888 48.0305 131.663 48.2549 131.438Z" fill="#9BACB3"/>
<path d="M47.5815 132.112V138.179C47.3571 138.403 47.3571 138.403 47.1327 138.628V132.562C47.3571 132.337 47.3571 132.112 47.5815 132.112Z" fill="#97A7AD"/>
<path d="M47.1328 132.562V138.628C47.1328 138.853 46.9084 138.853 46.9084 139.077V133.011C46.9084 132.786 47.1328 132.562 47.1328 132.562Z" fill="#93A2A8"/>
<path d="M46.9083 132.786V138.853C46.9083 139.077 46.6839 139.077 46.6839 139.302V133.236C46.9083 133.011 46.9083 133.011 46.9083 132.786Z" fill="#8E9DA3"/>
<path d="M58.8036 134.584V140.65C58.8036 140.875 58.8036 140.875 58.5792 141.099V135.033C58.5792 135.033 58.5792 134.808 58.8036 134.584Z" fill="#3D758D"/>
<path d="M58.5792 135.033V141.099C58.5792 141.324 58.3548 141.324 58.3548 141.549V135.482C58.3548 135.258 58.5792 135.258 58.5792 135.033Z" fill="#3F7992"/>
<path d="M58.3548 135.482V141.549C58.3548 141.773 58.1303 141.773 57.9059 141.998V135.932C58.1303 135.707 58.1304 135.482 58.3548 135.482Z" fill="#417C96"/>
<path d="M57.9059 135.932V141.998C57.6814 142.223 57.457 142.447 57.2326 142.672V136.606C57.457 136.156 57.6814 135.932 57.9059 135.932Z" fill="#43809B"/>
<path d="M57.2327 136.381V142.447C56.7838 142.672 56.3349 142.897 55.886 143.122V137.055C56.3349 136.83 56.7838 136.606 57.2327 136.381Z" fill="#44849F"/>
<path d="M55.6615 137.055V143.122C55.2126 143.346 54.9882 143.346 54.5393 143.346V137.28C54.9882 137.28 55.4371 137.055 55.6615 137.055Z" fill="#43809B"/>
<path d="M54.5392 137.28V143.346C54.3148 143.346 54.0904 143.346 53.8659 143.346V137.28C54.0904 137.505 54.3148 137.28 54.5392 137.28Z" fill="#417C96"/>
<path d="M53.866 137.504V143.571C53.6415 143.571 53.417 143.571 53.1926 143.571V137.504C53.417 137.504 53.6415 137.504 53.866 137.504Z" fill="#3F7992"/>
<path d="M53.1926 137.504V143.571C52.9682 143.571 52.7438 143.571 52.5193 143.571V137.504C52.7438 137.504 52.9682 137.504 53.1926 137.504Z" fill="#3D758D"/>
<path d="M52.5193 137.504V143.571C52.2949 143.571 52.0704 143.571 51.846 143.571V137.504C52.0704 137.504 52.2949 137.504 52.5193 137.504Z" fill="#3B7189"/>
<path d="M51.846 137.504V143.571C51.6216 143.571 51.3972 143.571 51.1727 143.571V137.504C51.6216 137.504 51.6216 137.504 51.846 137.504Z" fill="#396E85"/>
<path d="M51.3971 137.504V143.571C51.1727 143.571 50.9482 143.571 50.7237 143.571V137.504C50.9482 137.28 51.1727 137.28 51.3971 137.504Z" fill="#376A80"/>
<path d="M50.7238 137.28V143.346C50.4993 143.346 50.2749 143.346 50.0505 143.122V137.055C50.2749 137.28 50.4993 137.28 50.7238 137.28Z" fill="#35667C"/>
<path d="M50.0505 137.055V143.122C49.826 143.122 49.6016 142.897 49.3772 142.897V136.831C49.6016 137.055 49.826 137.055 50.0505 137.055Z" fill="#336377"/>
<path d="M49.3772 136.83V142.897C49.1528 142.672 48.7038 142.672 48.4794 142.447C47.3572 141.773 46.6839 140.875 46.6839 139.976V133.91C46.6839 134.808 47.3572 135.707 48.4794 136.381C48.7038 136.606 49.1528 136.83 49.3772 136.83Z" fill="#315F73"/>
<path d="M105.936 153.906V159.973L21.9953 112.116V106.049L105.936 153.906Z" fill="#336277"/>
<path d="M57.0081 131.438C59.477 132.786 59.477 135.033 57.0081 136.381C54.5392 137.729 50.7237 137.729 48.4793 136.381C46.0104 135.033 46.0104 132.786 48.4793 131.438C50.7237 130.09 54.7637 130.09 57.0081 131.438Z" fill="#1A9494"/>
<path d="M205.813 95.0399V101.106L105.936 159.973V153.906L205.813 95.0399Z" fill="#498DAB"/>
<path d="M205.813 95.0398L105.936 153.906L21.9953 106.049L122.096 47.1829L205.813 95.0398Z" fill="#183871"/>
<g clip-path="url(#clip0_136_2)">
<path d="M176.411 97.5114L108.405 137.505L51.3971 104.926L119.403 64.9327L176.411 97.5114Z" fill="#8FEDFF"/>
<path d="M176.411 97.5114L108.405 137.505L51.3971 104.926L119.403 64.9327L176.411 97.5114Z" fill="#78FFFF"/>
</g>
<path d="M172.595 97.7361L108.854 135.258L55.437 104.701L119.178 67.1795L172.595 97.7361Z" fill="#183871"/>
<path d="M217.484 95.4893C217.484 95.714 217.259 95.9386 217.259 96.1633C217.035 96.388 217.035 96.6127 216.81 96.6127C216.586 96.8374 216.586 96.8374 216.361 96.8374C216.137 96.8374 216.137 97.0621 215.913 97.0621L98.3053 166.264V172.33L215.913 103.128L216.137 102.904C216.361 102.904 216.361 102.679 216.586 102.679C216.81 102.454 216.81 102.454 217.035 102.23V102.005C217.035 102.005 217.035 101.78 217.259 101.556V101.331C217.259 101.106 217.259 101.106 217.259 100.882V94.8152C217.484 95.0399 217.484 95.2646 217.484 95.4893Z" fill="#3CBFBF"/>
<path d="M127.707 42.0152C125.463 40.6671 121.647 40.6671 119.403 42.0152L1.79553 111.217C-0.448883 112.565 -0.448883 114.812 1.79553 116.16L89.7765 166.488C92.0209 167.836 95.8364 167.836 98.0808 166.488L215.688 97.2866C217.932 95.9386 217.932 93.6917 215.688 92.3437L127.707 42.0152ZM105.936 153.906L21.9952 106.049L121.872 47.1829L205.588 95.0398L105.936 153.906ZM48.4793 136.381C46.0104 135.033 46.0104 132.786 48.4793 131.438C50.9481 130.09 54.7637 130.09 57.2325 131.438C59.7014 132.786 59.7014 135.033 57.2325 136.381C54.7637 137.729 50.9481 137.954 48.4793 136.381Z" fill="#8FEDFF"/>
<path d="M99.0424 166C98.5935 166.225 97.4076 166.713 96.9587 166.713C96.7342 166.713 96.7343 166.713 96.5098 166.938C96.2854 166.938 96.0609 166.938 95.8365 167.162C95.612 167.162 95.3876 167.162 95.1632 167.387H94.9387C94.7143 167.387 94.2654 167.387 94.041 167.387H93.8165C93.5921 167.387 93.1432 167.387 92.9188 167.387C92.9188 167.387 92.9187 167.387 92.6943 167.387C92.4699 167.387 92.021 167.387 91.7965 167.162H91.5721C91.3477 167.162 91.1232 166.938 90.6743 166.938C90.6743 166.938 90.6743 166.938 90.4499 166.938C90.2254 166.713 89.7766 166.713 89.5521 166.488L1.79559 115.935C0.673378 115.261 8.39233e-05 114.362 8.39233e-05 113.464C8.39233e-05 115.486 8.39233e-05 117.508 8.39233e-05 119.53C8.39233e-05 120.429 0.673378 121.328 1.79559 122.002L89.7766 172.33C90.001 172.555 90.2255 172.555 90.6743 172.779C90.6743 172.779 90.6744 172.779 90.8988 172.779C91.1232 172.779 91.3476 173.004 91.3476 173.004H91.5721H91.7965C91.7965 173.004 91.7966 173.004 92.021 173.004C92.2454 173.004 92.4699 173.004 92.6943 173.004H92.9188C92.9188 173.004 92.9188 173.004 93.1432 173.004H93.3676C93.592 173.004 93.8165 173.004 94.041 173.004H94.2654C94.2654 173.004 94.2654 173.004 94.4898 173.004H94.7143C94.9387 173.004 95.1632 173.004 95.3876 173.004C95.3876 173.004 95.3876 173.004 95.612 173.004C95.8364 173.004 96.0609 173.004 96.0609 173.004H96.2854C96.5098 173.004 96.7342 173.004 96.9587 172.779H97.1831C97.1831 172.779 97.1831 172.779 97.4076 172.779C97.8565 172.555 98.3053 172.555 98.5298 172.33L99.0424 166Z" fill="#3CBFBF"/>
<path d="M57.0081 132.112C59.477 133.46 59.477 135.707 57.0081 137.055C54.5392 138.403 50.7237 138.403 48.4793 137.055C46.0104 135.707 46.0104 133.46 48.4793 132.112C50.7237 130.764 54.7637 130.764 57.0081 132.112Z" fill="#3CBFBF"/>
<g filter="url(#filter0_i_136_2)">
<path d="M167.882 97.9607L109.303 132.337L60.1503 104.252L118.73 69.8756L167.882 97.9607Z" fill="#0F2A5A"/>
</g>
<g opacity="0.1667">
<path opacity="0.1667" d="M167.882 39.7684L109.303 74.1446L60.1503 46.0595L118.73 11.6833L167.882 39.7684Z" fill="#D9FFFF"/>
</g>
<path d="M110.119 112.119C110.119 112.119 106.999 112.342 106.776 115.909C106.553 119.476 108.782 134.857 112.349 138.201C115.915 141.545 116.361 134.188 116.361 134.188C116.361 134.188 115.692 111.897 110.119 112.119Z" fill="#264A80"/>
<path d="M129.513 137.978C129.513 137.978 133.749 139.093 136.647 137.978C139.545 137.086 138.876 136.863 138.653 136.418C138.207 135.526 134.418 135.526 133.749 135.08C133.08 134.857 134.418 134.411 134.641 133.965C134.863 133.52 135.755 133.074 135.532 132.851C135.309 132.628 134.641 132.405 133.526 133.297C132.411 134.188 129.513 135.08 129.513 135.08V137.978Z" fill="#F4C5A4"/>
<path d="M130.182 134.634C130.182 134.634 129.959 135.526 129.736 136.417C129.736 137.755 130.182 138.647 130.182 138.647C130.182 138.647 116.138 140.43 112.795 138.424C112.795 138.424 109.674 132.851 115.024 131.959L130.182 134.634Z" fill="#264A80"/>
<path d="M114.132 138.87C113.909 138.87 113.463 138.647 113.017 138.424C112.795 138.424 112.795 138.201 112.572 137.978C109.005 134.634 106.999 119.253 106.999 115.686C106.999 115.017 107.222 114.572 107.445 114.126C108.336 118.138 112.349 136.418 113.909 136.863C115.47 137.309 126.17 137.309 130.182 137.532C130.405 138.201 130.628 138.647 130.628 138.647C130.628 138.647 118.813 140.207 114.132 138.87Z" fill="#264A80"/>
<path d="M126.17 181.224C126.17 181.224 125.501 184.122 127.284 184.791C129.29 185.459 130.851 186.351 131.52 186.797C132.188 187.466 140.659 190.809 141.774 189.249C142.888 187.466 140.213 185.682 139.545 185.014C138.876 184.345 133.08 179.441 133.08 179.441L126.17 181.224Z" fill="#111114"/>
<path d="M119.259 186.128C119.259 186.128 118.59 188.803 120.374 189.695C122.38 190.364 123.94 191.255 124.609 191.701C125.278 192.37 133.749 195.714 134.863 194.153C135.978 192.37 133.303 190.587 132.634 189.918C131.965 189.249 126.17 184.345 126.17 184.345L119.259 186.128Z" fill="#111114"/>
<path d="M111.457 141.099C111.457 141.099 132.188 153.805 132.857 157.149C133.526 160.493 133.749 179.886 133.749 179.886C133.749 179.886 128.399 182.116 125.947 180.778L123.718 162.499C123.718 162.499 107.445 150.684 106.553 150.238C105.661 150.015 111.457 141.099 111.457 141.099Z" fill="#1A3B6D"/>
<path d="M106.553 150.461C107.222 150.907 123.718 162.722 123.718 162.722L125.947 181.001C127.284 181.67 129.068 181.447 130.628 181.001C129.736 175.428 128.176 163.168 127.507 160.27C126.615 156.257 109.897 146.894 109.897 146.894L106.553 150.015C106.33 150.238 106.33 150.238 106.553 150.461Z" fill="#133167"/>
<path d="M111.68 141.768C111.68 141.768 109.451 148.901 108.113 150.461C108.113 150.461 124.609 158.932 125.501 163.168C126.393 167.403 127.73 185.46 127.73 185.46C127.73 185.46 124.163 187.912 119.036 186.128C119.036 186.128 117.03 172.307 116.807 166.734C116.807 166.734 91.8402 160.493 93.6236 146.672C93.4007 146.672 102.986 150.461 111.68 141.768Z" fill="#1A3B6D"/>
<path d="M116.807 166.734C117.03 172.307 119.036 186.128 119.036 186.128C119.928 186.351 120.597 186.574 121.488 186.574C121.265 184.345 121.042 181.67 120.82 177.88C119.928 163.836 117.699 164.282 117.699 164.282C101.871 157.372 98.5277 150.461 98.5277 150.461L93.4006 147.341C92.7318 160.493 116.807 166.734 116.807 166.734Z" fill="#133167"/>
<path d="M100.757 113.68C100.757 113.68 92.9549 117.692 92.7319 118.361C92.509 119.03 90.5028 120.367 93.4007 127.278C93.4007 127.278 97.4132 134.634 95.407 142.213C94.2924 146.672 93.4007 148.901 93.4007 148.901C93.4007 148.901 96.9674 154.028 106.776 150.238C108.782 149.569 112.126 146.672 113.018 144.665C113.018 144.665 112.126 138.201 113.24 130.844C114.355 123.265 115.024 113.68 110.788 112.342C110.565 112.342 109.451 111.005 100.757 113.68Z" fill="#1B3A71"/>
<path d="M103.432 111.228C103.432 111.228 109.228 114.125 106.776 118.584L109.451 119.921C109.228 119.921 111.903 112.342 103.432 111.228Z" fill="#FEFFFF"/>
<path d="M99.6423 108.107C99.6423 108.107 102.094 111.673 100.311 114.125C99.1965 115.463 101.872 118.807 106.107 118.361C106.107 118.361 108.113 117.915 107.89 117.246C107.444 115.686 108.113 114.794 108.782 113.457C109.228 112.565 99.6423 108.107 99.6423 108.107Z" fill="#EFB185"/>
<path d="M100.311 114.348C100.088 114.348 100.088 114.571 100.088 114.794C101.649 113.234 104.769 113.011 104.769 113.011L100.757 108.552C100.534 108.552 100.534 108.33 100.311 108.33L100.088 108.775C100.757 109.89 101.649 112.342 100.311 114.348Z" fill="#DD9569"/>
<path d="M107.668 117.469C107.222 115.017 107.89 115.017 108.559 113.68C108.782 113.234 108.113 112.788 107.222 112.119C106.999 112.342 106.776 112.565 106.553 113.011C104.993 115.686 104.993 117.469 105.215 118.584C105.438 118.584 105.884 118.584 106.107 118.584C106.553 118.584 107.89 118.138 107.668 117.469Z" fill="#F2B78F"/>
<path d="M98.7507 106.1C98.7507 106.1 99.8653 111.005 103.209 113.011C106.107 115.017 109.674 116.132 110.12 112.565C110.565 109.667 111.903 102.534 109.451 101.196C106.33 99.4128 104.992 97.1836 101.426 98.5212C101.426 98.7441 97.1903 100.75 98.7507 106.1Z" fill="#F4C5A4"/>
<path d="M98.7506 106.1C98.7506 106.1 99.1964 110.336 103.209 113.234C104.101 113.903 105.215 114.348 106.107 114.794C104.546 113.68 104.324 113.234 103.209 111.896C102.094 110.559 104.992 111.005 102.986 107.438C102.317 106.323 105.661 107.661 106.553 107.661C111.011 107.438 110.788 104.986 110.788 103.871C110.788 103.425 110.565 102.98 110.342 102.534L109.896 101.642C109.896 101.642 109.897 101.419 109.674 101.419C109.228 100.75 108.782 100.305 108.113 99.8587C106.107 99.8587 100.757 100.082 100.534 100.082C100.534 100.082 99.4193 101.419 98.7506 102.534C98.3047 103.648 98.3047 104.763 98.7506 106.1Z" fill="#E6A376"/>
<path d="M100.757 110.782C100.757 110.782 96.9672 107.438 98.3048 102.534C98.3048 102.534 98.9735 98.7442 103.209 98.0754C105.215 97.8525 109.228 97.8525 110.788 102.088C111.234 103.425 111.011 106.323 105.884 104.986C105.215 104.763 103.209 104.54 102.54 105.209C101.871 105.878 101.871 106.992 102.094 107.884C102.317 108.776 101.649 108.776 101.426 108.553C101.426 108.33 100.311 105.878 99.4193 106.992C98.7506 107.884 100.757 110.559 100.757 110.782Z" fill="#060D10"/>
<path d="M100.757 110.782C100.757 110.559 98.7507 107.884 99.6424 106.992C100.534 106.1 101.649 108.553 101.649 108.553C101.649 108.775 102.54 108.553 102.317 107.884C101.872 106.992 102.094 105.655 102.763 105.209C103.432 104.54 104.992 104.986 106.107 104.986C105.215 104.54 103.655 104.317 102.986 102.98C102.094 101.196 100.98 100.305 99.8653 99.8587C98.5278 101.196 98.3049 102.757 98.3049 102.757C97.1903 107.438 100.757 110.782 100.757 110.782Z" fill="#1D2B31"/>
<path d="M100.757 113.011C100.757 113.011 101.649 117.247 106.553 118.361L105.215 121.928C105.215 121.928 96.5215 117.693 100.757 113.011Z" fill="#FEFFFF"/>
<path d="M92.7319 118.361C92.509 119.03 90.5028 120.367 93.4007 127.278C93.4007 127.278 96.7445 134.634 95.1841 142.213C94.5153 145.334 94.0695 144.665 92.9549 147.34C92.2861 148.901 95.6299 151.353 98.7507 151.576C100.311 147.563 99.8653 147.563 100.534 143.328C101.426 137.309 100.757 132.405 95.8528 126.609C91.6174 121.482 93.1778 119.253 93.1778 117.915C92.9549 118.138 92.7319 118.138 92.7319 118.361Z" fill="#1B3A71"/>
<path d="M111.011 102.088C111.011 102.088 111.903 106.769 105.884 105.209C105.884 105.209 102.986 104.54 101.649 101.642C101.426 100.973 100.757 100.082 99.6423 100.082C99.6423 100.082 101.203 97.8526 105.215 98.0755C107.222 98.2984 109.228 100.082 109.674 100.305C110.12 100.528 109.451 102.534 111.011 102.088Z" fill="#060D10"/>
<path d="M101.426 150.907V151.576L112.349 159.155V158.486L101.426 150.907Z" fill="#B4B9BC"/>
<path d="M112.349 158.486V159.155L132.411 149.569V148.901L112.349 158.486Z" fill="#7D8183"/>
<path d="M101.426 150.907L112.349 158.486L132.411 148.901L121.488 141.321L101.426 150.907Z" fill="#E3E5E5"/>
<path d="M115.47 145.557L114.578 144.888L111.457 158.263L112.126 159.155L115.47 145.557Z" fill="#BDBBBB"/>
<path d="M136.424 135.526L135.532 134.857L114.578 144.888L115.47 145.557L136.424 135.526Z" fill="#D2D0D0"/>
<path d="M115.47 145.557L112.126 159.155L133.303 149.124L136.424 135.526L115.47 145.557Z" fill="#D5DFE6"/>
<path d="M115.47 145.557L133.303 149.124L136.424 135.526L115.47 145.557Z" fill="#E9F0F4"/>
<path d="M105.215 151.575C105.215 151.575 109.228 156.257 113.909 156.257C113.909 156.257 114.132 155.142 112.126 154.25C110.12 153.359 109.674 151.798 109.674 151.575C109.674 151.352 111.234 151.575 112.126 151.575C112.795 151.575 113.909 150.907 112.126 150.461C110.342 150.015 107.667 148.9 105.884 148.9C105.884 148.9 103.878 150.238 105.215 151.575Z" fill="#F4C5A4"/>
<path d="M95.8528 117.246C95.8528 117.246 91.8402 117.469 90.2798 120.59C88.7194 123.711 84.7069 138.869 86.4902 143.105C88.4965 147.563 105.215 152.69 105.215 152.69C104.547 149.792 106.553 148.009 106.553 148.009L92.9548 139.092C92.9548 139.092 99.1966 119.252 95.8528 117.246Z" fill="#264A80"/>
<path d="M92.9549 139.092L106.553 148.009C106.553 148.009 106.107 148.232 105.884 148.901C102.54 147.117 91.6174 140.876 90.7257 139.315C89.6111 137.532 95.6299 120.813 96.5216 118.138C98.3049 122.373 92.9549 139.092 92.9549 139.092Z" fill="#264A80"/>
<defs>
<filter id="filter0_i_136_2" x="60.1503" y="69.8756" width="107.732" height="66.4612" filterUnits="userSpaceOnUse" color-interpolation-filters="sRGB">
<feFlood flood-opacity="0" result="BackgroundImageFix"/>
<feBlend mode="normal" in="SourceGraphic" in2="BackgroundImageFix" result="shape"/>
<feColorMatrix in="SourceAlpha" type="matrix" values="0 0 0 0 0 0 0 0 0 0 0 0 0 0 0 0 0 0 127 0" result="hardAlpha"/>
<feOffset dy="5"/>
<feGaussianBlur stdDeviation="2"/>
<feComposite in2="hardAlpha" operator="arithmetic" k2="-1" k3="1"/>
<feColorMatrix type="matrix" values="0 0 0 0 0 0 0 0 0 0 0 0 0 0 0 0 0 0 0.25 0"/>
<feBlend mode="normal" in2="shape" result="effect1_innerShadow_136_2"/>
</filter>
<clipPath id="clip0_136_2">
<rect width="125.014" height="72.5718" fill="white" transform="matrix(-1 0 0 1 176.411 64.9327)"/>
</clipPath>
</defs>
</svg>
