<svg width="201" height="234" viewBox="0 0 201 234" fill="none" xmlns="http://www.w3.org/2000/svg">
<g opacity="0.2">
<path opacity="0.2" d="M153.518 147.054C182.471 163.905 182.695 191.091 153.967 207.717C125.238 224.568 78.3299 224.568 49.1526 207.717C20.1997 190.866 19.9752 163.68 48.7037 147.054C77.4322 130.427 124.34 130.427 153.518 147.054Z" fill="black"/>
</g>
<path d="M194.366 166.376C202.446 171.094 202.446 178.509 194.366 183.227L114.914 229.511C107.058 234.229 94.0409 234.229 85.961 229.511L6.05991 183.227C-2.01997 178.509 -2.01997 171.094 6.05991 166.376L85.5121 120.092C93.3676 115.373 106.385 115.373 114.465 120.092L194.366 166.376ZM113.567 228.612L193.019 182.328C200.202 178.059 200.202 171.319 193.019 167.05L113.118 120.99C105.936 116.721 94.0409 116.721 86.8588 120.99L7.40654 167.275C0.22442 171.544 0.22442 178.284 7.40654 182.553L87.3076 228.837C94.7142 232.881 106.385 232.881 113.567 228.612Z" fill="#2AFBFE"/>
<path d="M176.635 167.949C183.144 171.768 183.144 177.835 176.635 181.654L112.221 218.951C105.712 222.771 95.1631 222.771 88.4299 218.951L23.7908 181.654C17.282 177.835 17.282 171.768 23.7908 167.949L88.2054 130.427C94.7142 126.607 105.263 126.607 111.996 130.427L176.635 167.949ZM110.874 218.277L175.289 180.756C181.124 177.385 181.124 171.993 175.289 168.623L110.65 131.101C104.814 127.731 95.3876 127.731 89.7765 131.101L25.3619 168.623C19.5264 171.993 19.7508 177.385 25.3619 180.756L90.0009 218.277C95.8364 221.647 105.263 221.647 110.874 218.277Z" fill="#2AFBFE"/>
<path d="M103.916 116.497C106.161 117.845 106.161 119.867 103.916 121.215C101.672 122.563 98.0808 122.563 96.0608 121.215C94.0408 120.092 93.8164 118.294 95.3875 117.171C95.6119 116.946 95.8363 116.946 96.0608 116.722C96.2852 116.497 96.5097 116.497 96.9586 116.272C98.9785 115.149 102.121 115.373 103.916 116.497Z" fill="#2AFBFE"/>
<path opacity="0.1667" d="M90.2253 118.519C90.2253 123.911 94.4897 128.405 100.101 128.405C105.487 128.405 109.976 123.911 109.976 118.519C109.976 113.127 105.487 108.633 100.101 108.633C94.7142 108.633 90.2253 113.127 90.2253 118.519Z" fill="#DBFEFF"/>
<path opacity="0.3333" d="M91.572 118.519C91.572 123.237 95.3875 127.057 100.101 127.057C104.814 127.057 108.63 123.237 108.63 118.519C108.63 113.801 104.814 109.981 100.101 109.981C95.3875 109.981 91.572 113.801 91.572 118.519Z" fill="#B8FEFF"/>
<path opacity="0.5" d="M92.9187 118.744C92.9187 122.788 96.0609 125.933 100.101 125.933C104.141 125.933 107.283 122.788 107.283 118.744C107.283 114.699 104.141 111.554 100.101 111.554C96.2853 111.554 92.9187 114.699 92.9187 118.744Z" fill="#95FDFF"/>
<path opacity="0.6667" d="M94.2654 118.744C94.2654 121.889 96.9587 124.585 100.101 124.585C103.243 124.585 105.936 121.889 105.936 118.744C105.936 115.598 103.243 112.902 100.101 112.902C96.9587 112.902 94.2654 115.598 94.2654 118.744Z" fill="#71FCFE"/>
<path opacity="0.8333" d="M95.6118 118.968C95.6118 121.44 97.6318 123.462 100.101 123.462C102.569 123.462 104.589 121.44 104.589 118.968C104.589 116.497 102.569 114.475 100.101 114.475C97.6318 114.475 95.6118 116.497 95.6118 118.968Z" fill="#4EFCFE"/>
<path d="M96.9585 118.968C96.9585 120.766 98.3051 122.114 100.101 122.114C101.896 122.114 103.243 120.766 103.243 118.968C103.243 117.171 101.896 115.823 100.101 115.823C98.5296 115.823 96.9585 117.171 96.9585 118.968Z" fill="#2AFBFE"/>
<path d="M164.74 143.459C164.74 143.683 164.74 144.133 164.74 144.357C164.74 144.582 164.74 145.031 164.74 145.256C164.74 145.481 164.74 145.93 164.516 146.155C164.516 146.379 164.516 146.604 164.291 147.053C164.291 147.278 164.067 147.727 164.067 147.952C164.067 148.177 163.842 148.402 163.842 148.851C163.842 149.076 163.618 149.525 163.618 149.75C163.618 149.974 163.393 150.199 163.393 150.648C163.169 150.873 163.169 151.322 162.944 151.547C162.72 151.772 162.72 151.996 162.496 152.446C162.271 152.67 162.271 153.12 162.047 153.344C161.822 153.569 161.822 153.794 161.598 154.019C161.373 154.468 161.149 154.693 160.924 155.142C160.7 155.367 160.7 155.591 160.476 155.816C160.251 156.265 159.802 156.715 159.578 157.164C159.353 157.389 159.353 157.613 159.129 157.613C158.68 158.287 158.007 158.962 157.558 159.636C157.333 159.86 157.333 159.86 157.109 160.085C156.66 160.534 156.211 160.984 155.762 161.433C155.538 161.658 155.313 161.882 155.089 162.107C154.865 162.332 154.416 162.556 154.191 163.006C153.967 163.23 153.518 163.455 153.293 163.68C153.069 163.904 152.62 164.129 152.171 164.579C151.947 164.803 151.498 165.028 151.274 165.253C150.825 165.477 150.6 165.702 150.151 165.927C149.927 166.151 149.478 166.376 149.029 166.601C148.58 166.825 148.356 167.05 147.907 167.275C147.458 167.499 147.009 167.949 146.336 168.173C144.989 169.072 143.418 169.746 142.071 170.42C141.623 170.645 141.174 170.87 140.949 170.87C139.603 171.544 138.256 171.993 136.909 172.667C136.685 172.667 136.46 172.892 136.236 172.892C134.665 173.566 133.318 174.015 131.747 174.464C130.625 174.914 129.503 175.139 128.381 175.363C127.483 175.588 126.809 175.813 125.912 176.037C124.789 176.262 123.443 176.487 122.321 176.711C121.423 176.936 120.749 177.161 119.852 177.161C119.403 177.161 119.178 177.385 118.73 177.385C117.383 177.61 115.812 177.835 114.465 178.059C114.016 178.059 113.567 178.284 113.118 178.284C111.323 178.509 109.752 178.509 107.956 178.733C107.732 178.733 107.283 178.733 107.059 178.733C105.936 178.733 104.814 178.733 103.692 178.733C102.57 178.733 101.223 178.733 100.101 178.733C99.2031 178.733 98.3053 178.733 97.1831 178.733C96.0609 178.733 94.9387 178.733 93.8165 178.509C92.9188 178.509 91.7966 178.284 90.8988 178.284C89.7766 178.284 88.6544 178.059 87.7566 177.835C86.8589 177.61 85.9611 177.61 85.0633 177.385C83.9411 177.161 82.8189 176.936 81.6967 176.711C80.5745 176.487 79.4523 176.262 78.3301 176.037C78.1057 176.037 77.6568 175.813 77.4323 175.813C75.8612 175.363 74.2901 174.914 72.7191 174.464C72.2702 174.24 71.8213 174.24 71.3724 174.015C70.0258 173.566 68.6791 173.116 67.5569 172.667C67.108 172.442 66.8836 172.442 66.4347 172.218C65.3125 171.768 64.1903 171.319 63.0681 170.87C62.6192 170.645 61.9459 170.42 61.497 170.196C59.9259 169.521 58.3548 168.623 56.7837 167.724C44.215 160.534 37.9307 150.873 37.9307 141.436C37.9307 151.098 37.9307 160.759 37.9307 170.42C37.9307 179.857 44.215 189.518 56.7837 196.708C58.3548 197.607 59.9259 198.281 61.497 199.179C61.9459 199.404 62.6192 199.629 63.0681 199.853C63.9658 200.303 65.0881 200.752 65.9858 201.201C66.2103 201.201 66.4347 201.426 66.4347 201.426C66.8836 201.651 67.108 201.651 67.5569 201.875C68.9036 202.325 70.2502 202.774 71.5969 203.224C72.0457 203.448 72.4946 203.448 72.9435 203.673C73.168 203.673 73.6168 203.898 73.8413 203.898C75.1879 204.347 76.5346 204.572 77.6568 205.021C77.8812 205.021 78.1057 205.246 78.3301 205.246C79.0034 205.47 79.6767 205.47 80.35 205.695C80.7989 205.695 81.4723 205.92 81.9212 205.92C83.0434 206.144 84.1656 206.369 85.2878 206.594C85.7367 206.594 86.1855 206.818 86.6344 206.818C87.0833 206.818 87.7566 206.818 88.2055 207.043C89.3277 207.268 90.2255 207.268 91.3477 207.493C91.7966 207.493 92.4699 207.717 92.9188 207.717C93.3677 207.717 93.8166 207.717 94.2654 207.717C95.3876 207.717 96.2854 207.942 97.4076 207.942C97.8565 207.942 98.5298 207.942 98.9787 207.942C99.4276 207.942 99.8765 207.942 100.325 207.942C101.448 207.942 102.57 207.942 103.916 207.942C104.59 207.942 105.039 207.942 105.712 207.942C106.385 207.942 106.834 207.942 107.507 207.942C107.732 207.942 108.181 207.942 108.405 207.942C109.752 207.942 111.323 207.717 112.67 207.717C112.894 207.717 113.118 207.717 113.567 207.717C114.016 207.717 114.465 207.717 114.914 207.493C116.485 207.268 117.832 207.043 119.403 206.818C119.852 206.818 120.076 206.818 120.525 206.594C120.749 206.594 120.974 206.594 120.974 206.594C121.647 206.369 122.321 206.369 122.994 206.144C124.116 205.92 125.238 205.695 126.361 205.47C127.258 205.246 127.932 205.021 128.829 204.796C129.952 204.572 131.074 204.122 132.196 203.898C132.42 203.898 132.645 203.673 132.869 203.673C134.216 203.224 135.563 202.774 136.685 202.325C136.909 202.325 137.134 202.1 137.134 202.1C138.48 201.651 139.827 200.977 141.174 200.303C141.623 200.078 141.847 199.853 142.296 199.853C143.867 199.179 145.214 198.505 146.56 197.607C146.785 197.382 147.009 197.382 147.234 197.157C147.458 196.933 147.682 196.933 147.907 196.708C148.356 196.483 148.805 196.258 149.029 196.034C149.254 195.809 149.702 195.584 149.927 195.36C150.376 195.135 150.6 194.91 151.049 194.461C151.273 194.236 151.722 194.012 151.947 193.787C152.396 193.562 152.62 193.338 153.069 192.888C153.293 192.664 153.742 192.439 153.967 192.214C154.191 191.99 154.64 191.765 154.865 191.316C155.089 191.316 155.089 191.091 155.313 191.091L155.538 190.866C155.987 190.417 156.436 189.967 157.109 189.518C157.333 189.293 157.333 189.293 157.558 189.069C158.231 188.395 158.68 187.721 159.129 187.047C159.353 186.822 159.353 186.822 159.353 186.597C159.578 186.148 160.027 185.698 160.251 185.249C160.476 185.024 160.476 184.8 160.7 184.575C160.924 184.126 161.149 183.901 161.373 183.452L161.598 183.227C161.598 183.002 161.822 183.002 161.822 182.778C162.047 182.553 162.271 182.104 162.271 181.879C162.496 181.654 162.496 181.43 162.72 180.98C162.944 180.756 162.944 180.306 163.169 180.081C163.169 179.857 163.393 179.857 163.393 179.632C163.393 179.407 163.393 179.407 163.618 179.183C163.618 178.958 163.842 178.509 163.842 178.284C163.842 178.059 164.067 177.61 164.067 177.385C164.067 177.161 164.291 176.711 164.291 176.487C164.291 176.262 164.291 176.037 164.516 176.037C164.516 175.813 164.516 175.813 164.516 175.588C164.516 175.363 164.516 174.914 164.74 174.689C164.74 174.464 164.74 174.015 164.74 173.79C164.74 173.566 164.74 173.116 164.74 172.892C164.74 172.667 164.74 172.442 164.74 172.218C164.74 171.993 164.74 171.768 164.74 171.768C164.74 162.107 164.74 152.446 164.74 142.784C164.74 142.56 164.74 143.009 164.74 143.459Z" fill="#8FEDFF"/>
<path d="M164.5 144.5C163.3 155.7 152.667 164.5 147.5 167.5L151.5 171.5L164.5 156.5V144.5Z" fill="#8FEDFF"/>
<path d="M145.887 116.048C170.8 130.427 171.024 153.794 146.111 168.398C121.198 182.778 81.0234 182.778 55.886 168.398C30.973 154.019 30.7485 130.652 55.6615 116.048C80.5745 101.443 120.974 101.443 145.887 116.048Z" fill="#C5F9FF"/>
<path d="M133.318 122.788C151.498 133.348 151.722 150.424 133.543 160.984C115.363 171.544 85.961 171.544 67.5569 160.984C49.3771 150.424 49.1527 133.348 67.3324 122.788C85.5122 112.228 114.914 112.228 133.318 122.788Z" fill="#183871"/>
<path d="M127.707 131.326C142.296 138.74 142.52 150.873 127.931 158.287C113.343 165.702 89.7764 165.702 74.9633 158.287C60.3746 150.873 60.1502 138.74 74.7389 131.326C89.552 123.911 113.118 123.911 127.707 131.326Z" fill="#0EDBFC"/>
<g opacity="0.8333">
<path opacity="0.8333" d="M134.665 111.329C153.069 120.092 153.293 134.471 134.889 143.234C116.485 151.996 86.6341 151.996 68.0055 143.234C49.6013 134.471 49.3769 120.092 67.781 111.329C86.1852 102.567 116.26 102.567 134.665 111.329Z" fill="#36E1FC"/>
</g>
<g opacity="0.6667">
<path opacity="0.6667" d="M141.622 91.5574C164.067 101.668 164.067 118.294 141.847 128.405C119.627 138.516 83.4922 138.516 61.048 128.405C38.6039 118.294 38.6039 101.668 60.8236 91.5574C83.0433 81.2221 119.178 81.2221 141.622 91.5574Z" fill="#5DE6FC"/>
</g>
<g opacity="0.5">
<path opacity="0.5" d="M148.58 71.5607C174.84 83.0194 174.84 101.893 148.804 113.351C122.769 124.81 80.3499 124.81 54.3147 113.351C28.055 101.893 28.055 83.0194 54.0902 71.5607C79.901 60.102 122.32 60.102 148.58 71.5607Z" fill="#85ECFD"/>
</g>
<g opacity="0.3333">
<path opacity="0.3333" d="M155.538 51.5642C185.613 64.5957 185.837 85.491 155.987 98.2978C126.136 111.329 77.6565 111.329 47.5814 98.2978C17.5062 85.2663 17.2818 64.371 47.1325 51.5642C76.7587 38.7574 125.462 38.7574 155.538 51.5642Z" fill="#ADF2FD"/>
</g>
<g opacity="0.1667">
<path opacity="0.1667" d="M162.495 31.7922C196.386 46.1718 196.61 69.3139 162.944 83.6934C129.278 98.073 74.5144 98.073 40.6238 83.6934C6.73319 69.3139 6.50875 46.1718 40.1749 31.7922C73.6167 17.4127 128.605 17.4127 162.495 31.7922Z" fill="#D4F7FD"/>
</g>
<g opacity="0.3333">
<g opacity="0.3333">
<path opacity="0.3333" d="M115.587 142.11L112.894 144.357C112.669 144.582 112.445 144.582 112.445 144.357L109.752 142.11C109.303 141.886 109.303 140.987 109.752 140.762L112.445 138.516C112.669 138.291 112.894 138.291 112.894 138.516L115.587 140.762C116.036 140.987 116.036 141.661 115.587 142.11Z" fill="#FDCDE7"/>
</g>
</g>
<g opacity="0.1667">
<g opacity="0.1667">
<path opacity="0.1667" d="M115.587 144.807L112.894 147.053C112.669 147.278 112.445 147.278 112.445 147.053L109.752 144.807C109.303 144.582 109.303 143.683 109.752 143.459L112.445 141.212C112.669 140.987 112.894 140.987 112.894 141.212L115.587 143.459C116.036 143.683 116.036 144.582 115.587 144.807Z" fill="#FDCDE7"/>
</g>
</g>
<g opacity="0.1667">
<g opacity="0.1667">
<path opacity="0.1667" d="M115.587 144.807L112.894 147.053C112.669 147.278 112.445 147.278 112.445 147.053L109.752 144.807C109.303 144.582 109.303 143.683 109.752 143.459L112.445 141.212C112.669 140.987 112.894 140.987 112.894 141.212L115.587 143.459C116.036 143.683 116.036 144.582 115.587 144.807Z" fill="#DAD5EB"/>
</g>
</g>
<g opacity="0.3333">
<g opacity="0.3333">
<path opacity="0.3333" d="M115.587 142.11L112.894 144.357C112.669 144.582 112.445 144.582 112.445 144.357L109.752 142.11C109.303 141.886 109.303 140.987 109.752 140.762L112.445 138.516C112.669 138.291 112.894 138.291 112.894 138.516L115.587 140.762C116.036 140.987 116.036 141.661 115.587 142.11Z" fill="#B7DCEF"/>
</g>
</g>
<g opacity="0.1">
<path opacity="0.095238" d="M115.587 147.278L112.894 149.525C112.669 149.75 112.445 149.75 112.445 149.525L109.752 147.278C109.303 147.054 109.303 146.155 109.752 145.93L112.445 143.683C112.669 143.459 112.894 143.459 112.894 143.683L115.587 145.93C116.036 146.379 116.036 147.054 115.587 147.278Z" fill="#EBFFFF"/>
</g>
<g opacity="0.3333">
<g opacity="0.3333">
<path opacity="0.3333" d="M86.4099 131.551L83.7166 133.797C83.4922 134.022 83.2677 134.022 83.2677 133.797L80.5745 131.551C80.1256 131.326 80.1256 130.427 80.5745 130.202L83.2677 127.956C83.4922 127.731 83.7166 127.731 83.7166 127.956L86.4099 130.202C86.8588 130.427 86.8588 131.326 86.4099 131.551Z" fill="#FDCDE7"/>
</g>
</g>
<g opacity="0.1667">
<g opacity="0.1667">
<path opacity="0.1667" d="M86.4099 134.247L83.7166 136.493C83.4922 136.718 83.2677 136.718 83.2677 136.493L80.5745 134.247C80.1256 134.022 80.1256 133.123 80.5745 132.899L83.2677 130.652C83.4922 130.427 83.7166 130.427 83.7166 130.652L86.4099 132.899C86.8588 133.348 86.8588 134.022 86.4099 134.247Z" fill="#FDCDE7"/>
</g>
</g>
<g opacity="0.1667">
<g opacity="0.1667">
<path opacity="0.1667" d="M86.4099 134.247L83.7166 136.493C83.4922 136.718 83.2677 136.718 83.2677 136.493L80.5745 134.247C80.1256 134.022 80.1256 133.123 80.5745 132.899L83.2677 130.652C83.4922 130.427 83.7166 130.427 83.7166 130.652L86.4099 132.899C86.8588 133.348 86.8588 134.022 86.4099 134.247Z" fill="#DAD5EB"/>
</g>
</g>
<g opacity="0.3333">
<g opacity="0.3333">
<path opacity="0.3333" d="M86.4099 131.551L83.7166 133.797C83.4922 134.022 83.2677 134.022 83.2677 133.797L80.5745 131.551C80.1256 131.326 80.1256 130.427 80.5745 130.202L83.2677 127.956C83.4922 127.731 83.7166 127.731 83.7166 127.956L86.4099 130.202C86.8588 130.427 86.8588 131.326 86.4099 131.551Z" fill="#B7DCEF"/>
</g>
</g>
<g opacity="0.1">
<path opacity="0.095238" d="M86.4099 136.943L83.7166 139.19C83.4922 139.414 83.2677 139.414 83.2677 139.19L80.5745 136.943C80.1256 136.718 80.1256 135.819 80.5745 135.595L83.2677 133.348C83.4922 133.123 83.7166 133.123 83.7166 133.348L86.4099 135.595C86.8588 135.819 86.8588 136.493 86.4099 136.943Z" fill="#EBFFFF"/>
</g>
<path d="M140.546 202.112C140.546 202.112 140.77 205.033 142.117 206.606C143.464 208.178 149.075 211.773 148.626 213.346C148.177 214.919 144.137 214.919 141.444 212.447C138.75 209.751 138.077 209.302 136.955 209.077C135.833 208.852 134.261 207.504 135.384 205.033C135.384 205.033 138.975 203.91 140.546 202.112Z" fill="black"/>
<path d="M133.139 207.504C133.139 207.504 133.588 210.425 134.935 211.998C136.281 213.571 142.566 216.941 142.341 218.738C141.892 220.536 137.628 220.76 134.71 218.064C131.793 215.368 131.119 215.143 129.997 214.919C128.875 214.694 127.079 213.346 128.201 210.65C127.977 210.874 131.568 209.526 133.139 207.504Z" fill="black"/>
<path d="M117.877 164.141C117.877 164.141 138.75 175.824 139.873 179.419C141.668 184.587 141.444 188.182 140.546 201.438V204.583C140.546 204.583 137.853 206.83 134.935 205.258C134.037 204.808 134.935 196.27 133.588 191.327C133.588 191.327 133.139 185.71 133.588 184.138C133.588 184.138 116.755 178.296 112.94 174.701C108.9 171.331 117.877 164.141 117.877 164.141Z" fill="#1B3A71"/>
<path d="M100.146 167.961C100.146 167.961 96.7798 175.375 105.757 180.093C115.184 184.812 125.059 190.653 125.059 190.653C125.059 190.653 124.835 196.495 125.508 200.09C126.406 204.808 127.977 211.099 127.977 211.099C127.977 211.099 132.017 212.672 134.262 210.425C134.262 210.425 134.486 187.283 131.793 184.587C129.099 181.891 115.408 171.555 115.408 171.555L118.102 163.916L100.146 167.961Z" fill="#264A80"/>
<path d="M105.757 179.869C115.184 184.587 125.059 190.429 125.059 190.429C125.059 190.429 124.835 196.27 125.508 199.865C126.406 204.583 127.304 210.65 127.304 210.65C127.304 210.65 128.875 211.099 129.773 211.099C128.426 204.808 127.753 191.103 127.079 188.406C126.182 185.261 116.531 181.891 109.349 178.071C102.391 174.476 101.942 167.062 101.942 167.062L100.146 167.511C100.146 167.96 96.7798 175.375 105.757 179.869Z" fill="#1B3A71"/>
<path d="M141.219 201.213C142.117 188.182 141.668 185.036 139.873 179.644C138.526 176.049 117.877 164.366 117.877 164.366C117.877 164.366 116.755 165.264 115.408 166.612C121.019 169.309 134.486 176.274 136.955 180.992C139.873 186.384 137.628 201.438 138.077 205.707C139.424 205.707 140.995 205.033 140.995 205.033L141.219 201.213Z" fill="#264A80"/>
<path d="M127.079 159.647C127.079 159.647 129.997 159.198 131.344 160.097C132.69 161.22 133.588 161.445 134.037 162.568C134.486 163.692 134.037 164.141 132.915 164.141C132.017 164.141 130.446 163.467 128.875 162.568C127.304 161.67 127.079 161.894 126.631 161.894C126.406 162.119 125.733 160.546 127.079 159.647Z" fill="#F4C5A4"/>
<path d="M114.511 137.179C115.857 136.955 118.326 137.853 118.102 141.673C118.102 145.492 117.653 156.052 117.653 156.052C117.653 156.052 127.528 158.973 128.426 159.423C128.426 159.423 126.406 160.321 126.855 162.344C126.855 162.344 115.633 162.568 113.388 159.872C111.593 157.176 108.675 137.853 114.511 137.179Z" fill="#1B3A71"/>
<path d="M97.902 144.594C97.902 144.594 101.269 138.752 114.735 136.73C114.735 136.73 116.98 135.831 116.755 142.796C116.755 143.695 117.877 145.492 118.551 146.391C119.224 147.29 121.244 150.885 116.98 154.929C116.98 154.929 115.408 161.22 117.204 165.264C118.999 168.859 110.022 172.454 102.391 171.555C101.493 171.555 99.4731 170.881 100.146 167.511C101.044 164.366 102.84 158.524 101.269 152.682C99.922 147.065 96.7798 147.739 97.902 144.594Z" fill="#264A80"/>
<path d="M97.902 144.594C96.7798 147.739 99.922 146.841 101.493 152.907C103.064 158.973 101.044 164.59 100.371 167.736C99.4731 170.881 101.718 171.555 102.615 171.78C103.962 172.005 105.084 172.005 106.431 171.78C103.738 165.938 107.104 155.378 107.329 149.537C107.553 143.47 101.942 140.999 101.942 140.999C98.7998 143.021 97.902 144.594 97.902 144.594Z" fill="#1B3A71"/>
<path d="M112.266 125.945C112.266 125.945 111.368 132.91 110.92 139.651C110.92 140.55 111.817 142.347 113.613 141.898C113.613 141.898 118.551 134.034 114.735 126.17C113.388 123.698 108.9 120.104 103.513 123.923L112.266 125.945Z" fill="#060D10"/>
<path d="M113.837 135.157C113.837 135.157 111.368 138.078 112.491 140.999C112.715 141.898 113.613 145.268 108.451 143.92C108.451 143.92 103.064 141.224 104.635 139.651C105.757 138.527 106.88 136.955 105.308 131.338L113.837 135.157Z" fill="#F4C5A4"/>
<path d="M104.635 139.426C104.411 139.651 104.411 139.875 104.411 139.875C109.348 140.999 112.715 137.404 112.715 137.404L106.206 131.787C106.206 131.787 105.982 132.012 105.308 132.461C106.431 137.179 105.533 138.527 104.635 139.426Z" fill="#DB9669"/>
<path d="M112.94 125.271C112.94 125.271 114.286 125.721 114.286 129.99C114.286 130.439 114.959 131.113 115.184 132.236C115.408 133.36 115.633 138.078 112.94 138.527C110.92 138.977 106.206 137.629 104.635 132.91C103.064 128.192 107.104 122.126 112.94 125.271Z" fill="#F4C5A4"/>
<path d="M112.715 126.844C112.715 126.844 100.82 131.113 109.797 146.391C109.797 146.391 103.513 147.065 100.82 141.673C99.473 139.201 99.9219 134.034 100.371 129.091C100.371 129.091 101.717 121.452 108.002 122.575C108.002 122.8 112.266 124.373 112.715 126.844Z" fill="#060D10"/>
<path d="M112.715 126.844C112.715 126.844 114.735 126.395 115.857 130.214C115.857 130.214 115.633 119.43 105.308 122.575C105.308 122.8 111.368 123.024 112.715 126.844Z" fill="#060D10"/>
<path d="M107.104 133.584C107.104 133.584 106.431 131.338 105.084 132.012C104.635 132.236 104.186 132.686 104.859 133.809C105.533 134.932 106.879 136.056 107.777 135.831L107.104 133.584Z" fill="#F1B287"/>
<path d="M111.817 171.78V172.454L120.795 178.97V178.296L111.817 171.78Z" fill="#B4B9BC"/>
<path d="M120.795 178.296V178.97L137.852 171.106V170.657L120.795 178.296Z" fill="#7D8183"/>
<path d="M111.817 171.78L120.795 178.296L137.853 170.657L128.875 164.141L111.817 171.78Z" fill="#E3E5E5"/>
<path d="M123.713 167.511L123.04 167.062L120.122 178.296L120.795 178.97L123.713 167.511Z" fill="#BDBBBB"/>
<path d="M141.219 159.423L140.546 158.749L123.04 167.062L123.713 167.511L141.219 159.423Z" fill="#D2D0D0"/>
<path d="M123.713 167.511L120.795 178.97L138.526 170.881L141.219 159.423L123.713 167.511Z" fill="#D5DFE6"/>
<path d="M123.713 167.511L138.526 170.881L141.219 159.423L123.713 167.511Z" fill="#E9F0F4"/>
<path d="M113.164 165.265C113.164 165.265 116.082 165.714 116.979 167.062C117.877 168.41 119.224 169.983 119.448 171.106C119.673 172.23 119.448 172.679 118.551 172.454C117.653 172.23 115.408 170.207 114.286 168.859C113.164 167.511 112.94 167.736 112.491 167.511C111.817 167.287 111.593 165.714 113.164 165.265Z" fill="#F4C5A4"/>
<path d="M112.266 167.511C112.715 167.736 112.939 167.511 114.062 168.859C115.184 170.208 117.428 172.005 118.326 172.454C118.55 172.454 118.55 172.454 118.775 172.454C118.102 171.556 116.979 170.208 116.082 168.859C114.735 167.287 112.715 166.613 112.042 166.388C111.817 166.837 112.042 167.287 112.266 167.511Z" fill="#DB9669"/>
<path d="M99.2487 143.021C100.595 142.796 103.064 143.695 103.064 147.29C103.064 151.11 102.84 161.67 102.84 161.67C102.84 161.67 112.715 164.366 113.837 164.815C113.837 164.815 111.817 165.264 112.491 167.511C112.491 167.511 101.044 168.41 99.0242 165.714C96.7798 163.242 93.4132 143.92 99.2487 143.021Z" fill="#264A80"/>
<path d="M113.613 165.04C112.491 164.59 102.615 161.894 102.615 161.894C102.615 161.894 102.84 151.334 102.84 147.515C102.84 143.695 100.595 143.021 99.0243 143.246C98.5754 143.246 98.351 143.47 97.9021 143.695V143.92C97.9021 143.92 101.044 145.717 100.82 152.682C100.595 159.647 97.6777 163.467 103.289 164.59C106.655 165.264 110.022 165.939 112.266 166.388C112.94 165.264 113.613 165.04 113.613 165.04Z" fill="#264A80"/>
</svg>
